<svg id="Layer_1" data-name="Layer 1" xmlns="http://www.w3.org/2000/svg" viewBox="0 0 2247.37848 460.12355"><defs><style>.cls-1{fill:#3e5b58;}</style></defs><polygon class="cls-1" points="748.523 310.836 688.631 129.806 648.026 129.806 586.781 309.82 527.904 129.806 482.224 129.806 560.726 366.667 607.76 366.667 667.313 191.39 725.851 366.667 772.547 366.667 851.049 129.806 809.091 129.806 748.523 310.836"/><path class="cls-1" d="M984.49975,203.06421q-21.15087-19.11327-61.07617-19.11816A152.12278,152.12278,0,0,0,881.1272,189.698q-19.96948,5.7583-34.17579,16.58106l16.58008,30.791a73.70128,73.70128,0,0,1,24.87061-13.19629,97.23987,97.23987,0,0,1,29.9458-4.7373q22.333,0,33.668,10.15137,11.33276,10.15137,11.33545,29.09961v2.707H916.656q-38.915,0-57.01562,14.71972-18.10547,14.71875-18.103,39.082a48.90869,48.90869,0,0,0,8.29053,27.915q8.28735,12.356,23.5166,19.28809,15.22706,6.93018,35.5293,6.93652,20.302,0,34.6831-6.25976,14.37818-6.25782,22.16309-18.10352v21.99414h39.92822V260.7566Q1005.64819,222.1814,984.49975,203.06421ZM963.35132,310.15894a39.574,39.574,0,0,1-17.42578,20.80957q-12.356,7.28028-28.2544,7.27539-16.24146,0-25.37793-6.76758a21.561,21.561,0,0,1-9.13574-18.27246q0-24.022,36.54394-24.02441h43.64991Z"/><path class="cls-1" d="M1117.6477,319.63355,1060.801,185.97632h-43.98828l78.84082,181.36719-3.04541,7.10645q-6.09081,13.5293-13.36572,19.28711-7.28028,5.7495-18.44141,5.75195a44.05041,44.05041,0,0,1-16.74951-3.38379,46.06541,46.06541,0,0,1-14.38037-9.13574l-16.91894,31.12988q8.4624,7.77978,21.65576,12.18164a84.13292,84.13292,0,0,0,26.73144,4.39844q24.022,0,40.94336-12.01172,16.91529-12.01466,28.76123-41.45117l84.59326-195.24024h-40.60449Z"/><path class="cls-1" d="M1278.03149,129.97535q-16.92407,16.75048-16.91845,45.84961v11.50488h-29.77686v33.83691H1261.113v145.5h42.29638v-145.5h48.38721V187.32984h-49.74072V176.50171q0-29.09764,26.73144-29.09961a40.45705,40.45705,0,0,1,23.34766,7.44434l11.84277-31.80762q-13.87866-9.81006-38.23584-9.8125Q1294.94727,113.22632,1278.03149,129.97535Z"/><path class="cls-1" d="M1426.89477,112.38062q-7.78857-6.93163-19.28759-6.93652-11.50782,0-19.2876,7.27441a24.94676,24.94676,0,0,0,0,36.20606q7.78051,7.28027,19.2876,7.27539,11.84106,0,19.45654-7.61328a25.51661,25.51661,0,0,0,7.61328-18.78028A22.37024,22.37024,0,0,0,1426.89477,112.38062Z"/><rect class="cls-1" x="1386.28979" y="185.97632" width="42.29639" height="180.69043"/><path class="cls-1" d="M1573.0686,183.94605q-19.97021,0-35.86719,6.42871a66.12873,66.12873,0,0,0-26.39355,18.94922V185.97632h-40.2666V366.66675h42.29687V275.3064q0-26.39208,13.53516-40.43555,13.5293-14.03613,36.88281-14.042,20.63526,0,31.80664,12.01172,11.16651,12.01466,11.166,35.69824v98.12793h42.29687v-103.542q0-39.24756-20.64062-59.21484Q1607.241,183.94849,1573.0686,183.94605Z"/><path class="cls-1" d="M1823.46411,208.30933a66.04854,66.04854,0,0,0-25.37793-18.27246,85.91643,85.91643,0,0,0-32.82227-6.09082q-26.05956,0-46.86425,11.50488a82.968,82.968,0,0,0-32.65332,32.4834q-11.84766,20.98389-11.84278,48.3877,0,27.40722,11.84278,48.55566a82.61492,82.61492,0,0,0,32.65332,32.65332q20.80956,11.50782,46.86425,11.50488a87.48633,87.48633,0,0,0,34.00586-6.42968,65.38955,65.38955,0,0,0,25.88575-19.28711v23.34765H1865.76V115.59449h-42.2959Zm-6.42969,97.78906a50.08828,50.08828,0,0,1-19.28711,19.79493,57.61713,57.61713,0,0,1-54.8164,0,50.08828,50.08828,0,0,1-19.28711-19.79493q-7.106-12.85546-7.10547-29.77636,0-16.916,7.10547-29.77735a50.15822,50.15822,0,0,1,19.28711-19.79492,57.61713,57.61713,0,0,1,54.8164,0,50.15822,50.15822,0,0,1,19.28711,19.79492q7.106,12.86425,7.10645,29.77735Q1824.14087,293.24536,1817.03442,306.09839Z"/><path class="cls-1" d="M2033.42212,195.61988q-20.811-11.67335-47.20313-11.67383-26.73486,0-48.04883,11.84277A85.24022,85.24022,0,0,0,1904.84009,228.78q-12.01465,21.15088-12.01172,47.542,0,26.73339,12.35058,47.8789a85.2423,85.2423,0,0,0,35.02149,32.99121q22.66552,11.84913,52.44726,11.84375,23.34815,0,41.958-7.44433a76.36511,76.36511,0,0,0,30.792-21.99414l-22.6709-26.05469q-19.28758,19.62744-49.06347,19.625-23.34815,0-39.082-11.67383-15.73536-11.67333-19.457-31.63769h141.77832q.67381-8.1211.67675-12.51953,0-27.74122-11.67382-48.89454A82.69328,82.69328,0,0,0,2033.42212,195.61988Zm-98.63574,66.15137q3.0454-19.96,17.08789-31.97559,14.03613-12.00732,34.34472-12.0127,20.63526,0,34.51367,12.18164,13.87061,12.18165,16.58008,31.80665Z"/><path class="cls-1" d="M2144.91333,212.3689V185.97632h-40.2666V366.66675h42.29687V279.02906q0-27.06738,13.87305-41.45117,13.8706-14.37744,38.57422-14.38086a53.74677,53.74677,0,0,1,9.81347,1.01562v-40.2666Q2163.18335,183.94605,2144.91333,212.3689Z"/><path class="cls-1" d="M247.058,440.48415a4.84053,4.84053,0,0,1-4.71455-3.74328L203.98435,271.9245,41.8552,231.92207a4.84063,4.84063,0,0,1,.12425-9.42831l162.02523-35.476L242.10222,23.38244a4.84086,4.84086,0,0,1,4.71439-3.743h.0104a4.84067,4.84067,0,0,1,4.70888,3.76281L288.911,187.04759l155.85361,35.45483a4.84059,4.84059,0,0,1,.13724,9.40672L288.94028,272.20269,251.77981,436.71014a4.84069,4.84069,0,0,1-4.70588,3.774ZM64.36189,227.50367,209.18564,263.2363a4.84041,4.84041,0,0,1,3.555,3.60241l34.24713,147.14777,33.16019-146.79812a4.84034,4.84034,0,0,1,3.51085-3.62013L423.1826,227.52132,283.79587,195.81244a4.84047,4.84047,0,0,1-3.64542-3.64219L246.77139,46.0218,212.74061,192.19011a4.84051,4.84051,0,0,1-3.67914,3.63092Z"/><path class="cls-1" d="M289.03961,241.92083c-6.00241-8.08414-5.96451-21.28444.08422-29.334l71.91168-95.69891c6.04873-8.04955,4.39387-9.71039-3.67746-3.69076l-95.825,71.46667c-8.07133,6.01963-21.2743,6.01339-29.33994-.01386L136.594,113.211c-8.06564-6.02725-9.72415-4.36641-3.68559,3.69077L204.61053,212.573c6.03856,8.05717,6.07647,21.26988.08423,29.36156l-71.87062,97.05133c-5.99224,8.09168-4.36655,9.6875,3.61264,3.54627l96.03678-73.91536c7.97919-6.14124,21.03605-6.14124,29.01524,0l96.03678,73.91536c7.97919,6.14123,9.59656,4.55158,3.59415-3.53256Z"/></svg>